<svg width="534" height="501" viewBox="0 0 534 501" fill="none" xmlns="http://www.w3.org/2000/svg">
<rect width="534" height="501" fill="white" fill-opacity="0.03"/>
<g clip-path="url(#clip0_68_19)">
<path d="M481 242.461C481 335.389 421.32 414.396 338.08 443.666C328.392 426.413 318.466 409.398 308.898 392.146C292.871 363.113 279.835 333.128 281.988 298.741C282.825 285.415 285.576 274.706 299.21 267.21C314.878 258.524 328.273 245.198 323.967 224.97C319.422 203.434 304.712 188.798 283.064 183.801C253.284 176.9 226.853 187.37 202.694 203.553C171.001 224.732 151.984 256.025 137.393 290.174C123.879 322.063 114.909 355.022 110.723 389.052C74.3649 350.857 52 299.217 52 242.461C52 124.546 148.038 29 266.56 29C385.082 29 481 124.546 481 242.461Z" fill="#FBB03B"/>
<path d="M354.465 473.888L353.03 473.293C322.891 455.802 131.294 463.537 115.029 438.787C111.202 432.838 107.853 425.104 108.092 418.322C108.571 408.446 109.408 398.689 110.604 389.051C149.712 430.101 205.087 455.802 266.441 455.802C291.556 455.802 315.715 451.519 338.08 443.666C343.701 453.661 349.322 463.775 354.465 473.888Z" fill="#C1272D"/>
<path d="M345.972 137.992C338.916 124.546 333.295 113.719 326.119 100.154C321.933 112.529 319.302 120.62 316.551 128.592C309.256 113.243 306.505 97.8934 291.794 89.2074C287.13 97.8934 282.585 106.103 278.997 112.886C268.233 101.582 258.665 91.5871 249.217 81.5923C247.662 82.7821 246.108 83.853 244.553 85.0429C244.433 88.4935 244.194 91.9441 244.074 95.3947C243.237 110.268 239.53 113.956 224.58 116.812C205.922 120.263 190.853 129.068 183.797 147.63C175.544 169.404 189.896 186.776 212.859 182.492C231.636 178.923 250.174 173.45 269.07 170.594C293.827 166.786 313.322 176.662 326.239 197.961C330.783 205.576 335.208 210.097 344.657 208.669C354.942 207.004 364.51 204.624 369.414 194.51C379.699 173.212 365.826 142.989 345.972 137.992Z" fill="#C1272D"/>
<path d="M294.426 290.056C294.665 305.405 306.983 318.375 322.771 319.683C338.797 320.992 353.029 309.57 355.421 293.387C357.693 277.919 347.647 262.927 332.697 259.357C324.325 257.454 294.306 281.489 294.426 290.056Z" fill="black"/>
<path d="M333.056 241.865C344.657 237.82 354.823 234.369 364.989 230.919C364.869 229.372 364.869 227.706 364.75 226.159C354.584 223.423 344.298 220.686 333.056 217.711C333.056 225.921 333.056 232.346 333.056 241.865Z" fill="black"/>
</g>
<defs>
<clipPath id="clip0_68_19">
<rect width="429" height="444.889" fill="white" transform="translate(52 29)"/>
</clipPath>
</defs>
</svg>
