<svg width="342" height="162" viewBox="0 0 342 162" fill="none" xmlns="http://www.w3.org/2000/svg">
<rect width="342" height="161.017" transform="translate(0 0.645996)" fill="white"/>
<path d="M163.69 44.4341H151.44V36.2286C151.44 33.8426 151.305 32.3587 151.033 31.7767C150.781 31.1754 150.209 30.8747 149.316 30.8747C148.308 30.8747 147.668 31.2336 147.396 31.9513C147.124 32.669 146.989 34.2209 146.989 36.6069V58.4881C146.989 60.7771 147.124 62.2708 147.396 62.9691C147.668 63.6675 148.279 64.0166 149.229 64.0166C150.141 64.0166 150.732 63.6675 151.004 62.9691C151.295 62.2708 151.44 60.6316 151.44 58.0517V52.1449H163.69V53.978C163.69 58.847 163.341 62.2999 162.643 64.3367C161.964 66.3735 160.441 68.1582 158.075 69.6906C155.727 71.2231 152.827 71.9893 149.375 71.9893C145.786 71.9893 142.828 71.3395 140.5 70.0398C138.172 68.7401 136.63 66.9458 135.873 64.6568C135.117 62.3484 134.739 58.8858 134.739 54.269V40.5059C134.739 37.1112 134.855 34.5701 135.088 32.8824C135.321 31.1754 136.009 29.5362 137.154 27.965C138.318 26.3937 139.918 25.1619 141.955 24.2696C144.011 23.3579 146.368 22.902 149.025 22.902C152.633 22.902 155.611 23.6004 157.958 24.997C160.305 26.3937 161.848 28.1395 162.585 30.2346C163.322 32.3102 163.69 35.5497 163.69 39.9531V44.4341ZM179.49 23.8913V34.4828C180.499 33.5517 181.585 32.8533 182.749 32.3878C183.933 31.9222 185.193 31.6894 186.532 31.6894C188.588 31.6894 190.334 32.2132 191.769 33.2607C193.224 34.3082 194.107 35.5206 194.417 36.8979C194.747 38.2557 194.912 40.7484 194.912 44.3759V71H183.157V43.823C183.157 41.5728 183.04 40.1277 182.807 39.4875C182.594 38.8474 182.099 38.5273 181.323 38.5273C180.606 38.5273 180.121 38.8571 179.869 39.5166C179.616 40.1762 179.49 41.4855 179.49 43.4448V71H167.735V23.8913H179.49ZM211.09 23.8913V30.0309H198.986V23.8913H211.09ZM211.09 32.3878V71H198.986V32.3878H211.09ZM241.322 46.9656H230.236V42.5137C230.236 40.9618 230.11 39.9143 229.858 39.3711C229.606 38.8086 229.14 38.5273 228.461 38.5273C227.782 38.5273 227.326 38.7698 227.094 39.2547C226.861 39.7397 226.745 40.826 226.745 42.5137V60.7286C226.745 62.1059 226.919 63.1437 227.268 63.842C227.617 64.521 228.131 64.8605 228.81 64.8605C229.606 64.8605 230.139 64.5016 230.411 63.7838C230.702 63.0661 230.847 61.7082 230.847 59.7102V55.1128H241.322C241.303 58.1971 241.187 60.5152 240.973 62.0671C240.779 63.5996 240.129 65.1805 239.024 66.81C237.937 68.42 236.512 69.6421 234.746 70.4762C232.981 71.291 230.799 71.6983 228.199 71.6983C224.882 71.6983 222.254 71.1358 220.314 70.0107C218.374 68.8662 216.997 67.2755 216.182 65.2387C215.387 63.1825 214.989 60.2728 214.989 56.5095V45.5398C214.989 42.2615 215.319 39.7882 215.978 38.1199C216.638 36.4517 218.044 34.9677 220.198 33.668C222.351 32.349 224.97 31.6894 228.054 31.6894C231.119 31.6894 233.738 32.3393 235.91 33.639C238.083 34.9386 239.528 36.5778 240.246 38.5564C240.963 40.535 241.322 43.3381 241.322 46.9656ZM270.158 32.3878L265.386 47.7803L271.584 71H260.265L256.598 54.1817V71H244.843V23.8913H256.598V43.6776L260.265 32.3878H270.158ZM299.983 52.3777H284.765V60.7286C284.765 62.4745 284.891 63.5996 285.143 64.1039C285.395 64.6083 285.88 64.8605 286.598 64.8605C287.49 64.8605 288.082 64.5307 288.373 63.8711C288.683 63.1922 288.838 61.8925 288.838 59.9721V54.88H299.983V57.7316C299.983 60.1176 299.827 61.9507 299.517 63.231C299.226 64.5113 298.528 65.8789 297.422 67.3337C296.316 68.7886 294.91 69.8846 293.203 70.6217C291.515 71.3395 289.391 71.6983 286.831 71.6983C284.348 71.6983 282.156 71.3395 280.255 70.6217C278.354 69.904 276.87 68.9244 275.803 67.6829C274.755 66.422 274.028 65.0447 273.62 63.5511C273.213 62.038 273.009 59.846 273.009 56.9751V45.7144C273.009 42.3391 273.465 39.6815 274.377 37.7417C275.289 35.7825 276.782 34.2888 278.858 33.2607C280.934 32.2132 283.32 31.6894 286.016 31.6894C289.314 31.6894 292.029 32.3199 294.163 33.5808C296.316 34.8222 297.82 36.4808 298.673 38.5564C299.546 40.6126 299.983 43.5127 299.983 47.2565V52.3777ZM288.198 46.0926V43.2702C288.198 41.2722 288.092 39.9822 287.878 39.4002C287.665 38.8183 287.228 38.5273 286.569 38.5273C285.754 38.5273 285.25 38.7795 285.056 39.2838C284.862 39.7688 284.765 41.0976 284.765 43.2702V46.0926H288.198ZM315.812 32.3878L315.608 35.9376C316.461 34.5216 317.499 33.4644 318.721 32.766C319.963 32.0483 321.389 31.6894 322.999 31.6894C325.016 31.6894 326.665 32.1647 327.945 33.1152C329.226 34.0657 330.05 35.2684 330.419 36.7233C330.787 38.1587 330.971 40.5641 330.971 43.9394V71H319.216V44.2595C319.216 41.6019 319.129 39.9822 318.954 39.4002C318.78 38.8183 318.295 38.5273 317.499 38.5273C316.665 38.5273 316.141 38.8668 315.928 39.5457C315.715 40.2053 315.608 41.9899 315.608 44.8996V71H303.853V32.3878H315.812ZM166.164 106.105V114.049L162.847 116.144L166.978 124H156.125L154.699 121.381C151.053 123.787 147.6 124.989 144.341 124.989C140.927 124.989 138.298 123.855 136.455 121.585C134.612 119.315 133.691 116.58 133.691 113.379C133.691 110.819 134.234 108.811 135.321 107.356C136.407 105.901 138.036 104.718 140.209 103.806C137.105 101.576 135.553 98.5592 135.553 94.7571C135.553 91.4788 136.659 88.8407 138.87 86.8426C141.082 84.8446 144.127 83.8456 148.007 83.8456C151.499 83.8456 154.244 84.8252 156.242 86.7844C158.259 88.7437 159.268 91.2363 159.268 94.2625C159.268 97.4438 158.046 100.266 155.601 102.73L159.762 110.237L166.164 106.105ZM148.036 97.8414C149.355 96.115 150.015 94.4661 150.015 92.8949C150.015 92.216 149.821 91.5952 149.433 91.0327C149.045 90.4701 148.502 90.1888 147.803 90.1888C147.163 90.1888 146.678 90.4022 146.348 90.829C146.019 91.2557 145.854 91.9056 145.854 92.7785C145.854 94.6019 146.581 96.2896 148.036 97.8414ZM150.684 116.056L146.872 109.713C145.417 111.032 144.69 112.458 144.69 113.99C144.69 115.096 144.913 115.93 145.359 116.493C145.825 117.036 146.504 117.308 147.396 117.308C148.346 117.308 149.442 116.891 150.684 116.056ZM208.559 97.4341H196.309V89.2286C196.309 86.8426 196.173 85.3587 195.901 84.7767C195.649 84.1754 195.077 83.8747 194.185 83.8747C193.176 83.8747 192.536 84.2336 192.264 84.9513C191.993 85.669 191.857 87.2209 191.857 89.6069V111.488C191.857 113.777 191.993 115.271 192.264 115.969C192.536 116.667 193.147 117.017 194.097 117.017C195.009 117.017 195.601 116.667 195.872 115.969C196.163 115.271 196.309 113.632 196.309 111.052V105.145H208.559V106.978C208.559 111.847 208.209 115.3 207.511 117.337C206.832 119.374 205.309 121.158 202.943 122.691C200.596 124.223 197.696 124.989 194.243 124.989C190.654 124.989 187.696 124.339 185.368 123.04C183.04 121.74 181.498 119.946 180.742 117.657C179.985 115.348 179.607 111.886 179.607 107.269V93.5059C179.607 90.1112 179.723 87.5701 179.956 85.8824C180.189 84.1754 180.877 82.5362 182.022 80.965C183.186 79.3937 184.786 78.1619 186.823 77.2696C188.879 76.3579 191.236 75.902 193.894 75.902C197.502 75.902 200.479 76.6004 202.826 77.997C205.174 79.3937 206.716 81.1395 207.453 83.2346C208.19 85.3102 208.559 88.5497 208.559 92.9531V97.4341ZM241.88 98.9471V108.404C241.88 111.876 241.705 114.427 241.356 116.056C241.007 117.666 240.26 119.18 239.116 120.596C237.971 121.992 236.497 123.03 234.693 123.709C232.908 124.369 230.852 124.698 228.524 124.698C225.925 124.698 223.723 124.417 221.919 123.855C220.115 123.273 218.709 122.409 217.7 121.265C216.711 120.101 216.003 118.704 215.576 117.075C215.149 115.426 214.936 112.962 214.936 109.684V99.791C214.936 96.2023 215.324 93.3992 216.1 91.3818C216.875 89.3644 218.272 87.7447 220.29 86.5226C222.307 85.3005 224.887 84.6894 228.029 84.6894C230.668 84.6894 232.928 85.0871 234.809 85.8824C236.71 86.6584 238.175 87.6768 239.203 88.9376C240.231 90.1985 240.929 91.4982 241.298 92.8367C241.686 94.1752 241.88 96.212 241.88 98.9471ZM230.124 96.0374C230.124 94.0588 230.018 92.8173 229.804 92.3129C229.591 91.7892 229.135 91.5273 228.437 91.5273C227.738 91.5273 227.273 91.7892 227.04 92.3129C226.807 92.8173 226.691 94.0588 226.691 96.0374V113.467C226.691 115.29 226.807 116.483 227.04 117.046C227.273 117.589 227.729 117.86 228.408 117.86C229.106 117.86 229.562 117.608 229.775 117.104C230.008 116.6 230.124 115.513 230.124 113.845V96.0374ZM262.864 100.635V108.753H247.413V100.635H262.864ZM297.058 104.476C297.058 109.209 296.941 112.565 296.709 114.543C296.495 116.503 295.797 118.297 294.614 119.926C293.45 121.556 291.869 122.807 289.871 123.68C287.873 124.553 285.545 124.989 282.887 124.989C280.366 124.989 278.096 124.582 276.079 123.767C274.081 122.933 272.47 121.692 271.248 120.043C270.026 118.394 269.299 116.6 269.066 114.66C268.833 112.72 268.717 109.325 268.717 104.476V96.4157C268.717 91.6825 268.824 88.3363 269.037 86.3771C269.27 84.3985 269.968 82.5944 271.132 80.965C272.315 79.3355 273.906 78.0843 275.904 77.2114C277.902 76.3385 280.23 75.902 282.887 75.902C285.409 75.902 287.669 76.3191 289.667 77.1532C291.684 77.9679 293.304 79.1997 294.526 80.8486C295.748 82.4974 296.476 84.2918 296.709 86.2316C296.941 88.1714 297.058 91.5661 297.058 96.4157V104.476ZM284.808 88.9958C284.808 86.8038 284.682 85.4072 284.43 84.8058C284.197 84.1851 283.702 83.8747 282.946 83.8747C282.305 83.8747 281.811 84.1269 281.462 84.6312C281.132 85.1162 280.967 86.5711 280.967 88.9958V110.993C280.967 113.729 281.074 115.416 281.287 116.056C281.52 116.697 282.044 117.017 282.858 117.017C283.692 117.017 284.226 116.648 284.459 115.911C284.691 115.174 284.808 113.418 284.808 110.644V88.9958ZM315.947 85.3878L315.743 88.7922C316.79 87.4149 317.945 86.3868 319.206 85.7078C320.466 85.0289 321.844 84.6894 323.337 84.6894C325.161 84.6894 326.732 85.1841 328.051 86.1734C329.39 87.1433 330.224 88.2684 330.554 89.5487C330.883 90.829 331.048 93.0016 331.048 96.0665V112.332C331.048 115.843 330.835 118.345 330.408 119.839C330.001 121.313 329.147 122.497 327.847 123.389C326.567 124.262 325.015 124.698 323.192 124.698C321.737 124.698 320.389 124.359 319.147 123.68C317.906 123.001 316.771 121.992 315.743 120.654V129.499H303.988V85.3878H315.947ZM319.293 96.6194C319.293 94.2334 319.206 92.7882 319.031 92.2838C318.856 91.7795 318.371 91.5273 317.576 91.5273C316.8 91.5273 316.296 91.8183 316.063 92.4002C315.85 92.9822 315.743 94.3886 315.743 96.6194V112.623C315.743 114.951 315.859 116.406 316.092 116.988C316.325 117.569 316.829 117.86 317.605 117.86C318.362 117.86 318.827 117.599 319.002 117.075C319.196 116.532 319.293 115.232 319.293 113.176V96.6194Z" fill="black"/>
<path d="M138.416 140.75C137.944 140.75 137.49 140.674 137.055 140.523C136.625 140.371 136.293 140.172 136.057 139.924L136.32 139.407C136.55 139.637 136.855 139.824 137.236 139.969C137.617 140.108 138.011 140.178 138.416 140.178C138.984 140.178 139.411 140.075 139.695 139.869C139.979 139.658 140.122 139.385 140.122 139.053C140.122 138.799 140.043 138.596 139.886 138.445C139.734 138.294 139.547 138.179 139.323 138.1C139.099 138.015 138.788 137.925 138.389 137.828C137.911 137.707 137.53 137.592 137.245 137.483C136.961 137.368 136.716 137.196 136.51 136.966C136.311 136.736 136.211 136.425 136.211 136.031C136.211 135.711 136.296 135.42 136.465 135.16C136.634 134.894 136.895 134.683 137.245 134.525C137.596 134.368 138.032 134.289 138.552 134.289C138.915 134.289 139.269 134.341 139.614 134.444C139.964 134.54 140.267 134.676 140.521 134.852L140.294 135.387C140.028 135.212 139.744 135.082 139.441 134.997C139.139 134.906 138.842 134.861 138.552 134.861C137.995 134.861 137.575 134.97 137.291 135.188C137.013 135.399 136.873 135.675 136.873 136.013C136.873 136.267 136.949 136.473 137.1 136.63C137.258 136.781 137.451 136.899 137.681 136.984C137.917 137.063 138.231 137.15 138.625 137.247C139.09 137.362 139.465 137.477 139.75 137.592C140.04 137.701 140.285 137.87 140.485 138.1C140.684 138.324 140.784 138.629 140.784 139.017C140.784 139.337 140.696 139.63 140.521 139.897C140.351 140.157 140.088 140.365 139.731 140.523C139.375 140.674 138.936 140.75 138.416 140.75ZM145.087 135.886C145.686 135.886 146.16 136.062 146.511 136.413C146.868 136.757 147.047 137.262 147.047 137.928V140.695H146.402V137.991C146.402 137.495 146.278 137.117 146.03 136.857C145.782 136.597 145.429 136.467 144.969 136.467C144.455 136.467 144.046 136.621 143.744 136.93C143.448 137.232 143.299 137.653 143.299 138.191V140.695H142.655V133.963H143.299V136.757C143.475 136.479 143.717 136.264 144.025 136.113C144.334 135.962 144.688 135.886 145.087 135.886ZM153.713 135.923V140.695H153.096V139.751C152.902 140.072 152.645 140.317 152.325 140.486C152.01 140.656 151.653 140.74 151.254 140.74C150.806 140.74 150.401 140.638 150.038 140.432C149.675 140.226 149.391 139.939 149.185 139.57C148.98 139.201 148.877 138.781 148.877 138.309C148.877 137.837 148.98 137.417 149.185 137.048C149.391 136.679 149.675 136.394 150.038 136.195C150.401 135.989 150.806 135.886 151.254 135.886C151.641 135.886 151.989 135.968 152.297 136.131C152.612 136.289 152.869 136.521 153.069 136.83V135.923H153.713ZM151.308 140.169C151.641 140.169 151.941 140.093 152.207 139.942C152.479 139.785 152.691 139.564 152.842 139.28C152.999 138.995 153.078 138.672 153.078 138.309C153.078 137.946 152.999 137.622 152.842 137.338C152.691 137.054 152.479 136.836 152.207 136.685C151.941 136.527 151.641 136.449 151.308 136.449C150.97 136.449 150.664 136.527 150.392 136.685C150.126 136.836 149.914 137.054 149.757 137.338C149.606 137.622 149.53 137.946 149.53 138.309C149.53 138.672 149.606 138.995 149.757 139.28C149.914 139.564 150.126 139.785 150.392 139.942C150.664 140.093 150.97 140.169 151.308 140.169ZM158.51 135.886C158.958 135.886 159.363 135.989 159.726 136.195C160.089 136.394 160.373 136.679 160.579 137.048C160.785 137.417 160.887 137.837 160.887 138.309C160.887 138.787 160.785 139.21 160.579 139.579C160.373 139.948 160.089 140.235 159.726 140.441C159.369 140.641 158.964 140.74 158.51 140.74C158.123 140.74 157.772 140.662 157.458 140.505C157.149 140.341 156.895 140.105 156.696 139.797V142.455H156.051V135.923H156.668V136.866C156.862 136.552 157.116 136.31 157.43 136.14C157.751 135.971 158.111 135.886 158.51 135.886ZM158.465 140.169C158.797 140.169 159.1 140.093 159.372 139.942C159.644 139.785 159.856 139.564 160.007 139.28C160.165 138.995 160.243 138.672 160.243 138.309C160.243 137.946 160.165 137.625 160.007 137.347C159.856 137.063 159.644 136.842 159.372 136.685C159.1 136.527 158.797 136.449 158.465 136.449C158.126 136.449 157.821 136.527 157.548 136.685C157.282 136.842 157.071 137.063 156.913 137.347C156.762 137.625 156.686 137.946 156.686 138.309C156.686 138.672 156.762 138.995 156.913 139.28C157.071 139.564 157.282 139.785 157.548 139.942C157.821 140.093 158.126 140.169 158.465 140.169ZM162.745 135.923H163.389V140.695H162.745V135.923ZM163.072 134.879C162.938 134.879 162.827 134.834 162.736 134.743C162.645 134.652 162.6 134.543 162.6 134.416C162.6 134.295 162.645 134.19 162.736 134.099C162.827 134.008 162.938 133.963 163.072 133.963C163.205 133.963 163.317 134.008 163.407 134.099C163.498 134.184 163.543 134.286 163.543 134.407C163.543 134.54 163.498 134.652 163.407 134.743C163.317 134.834 163.205 134.879 163.072 134.879ZM168.158 135.886C168.756 135.886 169.231 136.062 169.582 136.413C169.939 136.757 170.117 137.262 170.117 137.928V140.695H169.473V137.991C169.473 137.495 169.349 137.117 169.101 136.857C168.853 136.597 168.499 136.467 168.04 136.467C167.526 136.467 167.117 136.621 166.815 136.93C166.518 137.232 166.37 137.653 166.37 138.191V140.695H165.726V135.923H166.343V136.803C166.518 136.512 166.76 136.289 167.069 136.131C167.383 135.968 167.746 135.886 168.158 135.886ZM176.847 135.923V140.114C176.847 140.925 176.648 141.524 176.248 141.911C175.855 142.304 175.259 142.501 174.461 142.501C174.019 142.501 173.599 142.434 173.2 142.301C172.807 142.174 172.486 141.996 172.238 141.766L172.565 141.276C172.794 141.481 173.073 141.642 173.399 141.757C173.732 141.872 174.08 141.929 174.443 141.929C175.048 141.929 175.492 141.787 175.777 141.503C176.061 141.224 176.203 140.789 176.203 140.196V139.588C176.003 139.891 175.74 140.12 175.414 140.278C175.093 140.435 174.736 140.514 174.343 140.514C173.895 140.514 173.487 140.417 173.118 140.223C172.755 140.024 172.468 139.748 172.256 139.398C172.05 139.041 171.948 138.638 171.948 138.191C171.948 137.743 172.05 137.344 172.256 136.993C172.468 136.642 172.755 136.37 173.118 136.177C173.481 135.983 173.889 135.886 174.343 135.886C174.748 135.886 175.114 135.968 175.441 136.131C175.767 136.295 176.031 136.53 176.23 136.839V135.923H176.847ZM174.406 139.942C174.751 139.942 175.063 139.869 175.341 139.724C175.619 139.573 175.834 139.364 175.985 139.098C176.142 138.832 176.221 138.53 176.221 138.191C176.221 137.852 176.142 137.553 175.985 137.293C175.834 137.026 175.619 136.821 175.341 136.676C175.069 136.524 174.757 136.449 174.406 136.449C174.062 136.449 173.75 136.521 173.472 136.667C173.2 136.812 172.985 137.017 172.828 137.284C172.676 137.55 172.601 137.852 172.601 138.191C172.601 138.53 172.676 138.832 172.828 139.098C172.985 139.364 173.2 139.573 173.472 139.724C173.75 139.869 174.062 139.942 174.406 139.942ZM184.571 135.886C185.018 135.886 185.424 135.989 185.787 136.195C186.15 136.394 186.434 136.679 186.64 137.048C186.845 137.417 186.948 137.837 186.948 138.309C186.948 138.781 186.845 139.201 186.64 139.57C186.434 139.939 186.15 140.226 185.787 140.432C185.424 140.638 185.018 140.74 184.571 140.74C184.172 140.74 183.812 140.656 183.491 140.486C183.177 140.317 182.923 140.072 182.729 139.751V140.695H182.112V133.963H182.756V136.83C182.956 136.521 183.21 136.289 183.518 136.131C183.833 135.968 184.184 135.886 184.571 135.886ZM184.526 140.169C184.858 140.169 185.161 140.093 185.433 139.942C185.705 139.785 185.917 139.564 186.068 139.28C186.225 138.995 186.304 138.672 186.304 138.309C186.304 137.946 186.225 137.622 186.068 137.338C185.917 137.054 185.705 136.836 185.433 136.685C185.161 136.527 184.858 136.449 184.526 136.449C184.187 136.449 183.881 136.527 183.609 136.685C183.343 136.836 183.131 137.054 182.974 137.338C182.823 137.622 182.747 137.946 182.747 138.309C182.747 138.672 182.823 138.995 182.974 139.28C183.131 139.564 183.343 139.785 183.609 139.942C183.881 140.093 184.187 140.169 184.526 140.169ZM193.106 135.923V140.695H192.489V139.824C192.32 140.114 192.087 140.341 191.791 140.505C191.494 140.662 191.156 140.74 190.775 140.74C190.152 140.74 189.659 140.568 189.296 140.223C188.939 139.872 188.76 139.361 188.76 138.69V135.923H189.404V138.626C189.404 139.128 189.528 139.509 189.776 139.77C190.025 140.03 190.378 140.16 190.838 140.16C191.34 140.16 191.736 140.009 192.027 139.706C192.317 139.398 192.462 138.971 192.462 138.427V135.923H193.106ZM196.734 140.74C196.347 140.74 195.975 140.686 195.618 140.577C195.267 140.462 194.992 140.32 194.793 140.151L195.083 139.643C195.283 139.8 195.534 139.93 195.836 140.033C196.139 140.13 196.453 140.178 196.78 140.178C197.215 140.178 197.536 140.111 197.741 139.978C197.953 139.839 198.059 139.646 198.059 139.398C198.059 139.222 198.002 139.086 197.887 138.989C197.772 138.886 197.627 138.811 197.451 138.762C197.276 138.708 197.043 138.657 196.752 138.608C196.365 138.536 196.054 138.463 195.818 138.39C195.582 138.312 195.379 138.182 195.21 138C195.047 137.819 194.965 137.568 194.965 137.247C194.965 136.848 195.131 136.521 195.464 136.267C195.797 136.013 196.259 135.886 196.852 135.886C197.161 135.886 197.469 135.929 197.778 136.013C198.086 136.092 198.34 136.198 198.54 136.331L198.259 136.848C197.865 136.576 197.397 136.44 196.852 136.44C196.441 136.44 196.129 136.512 195.918 136.657C195.712 136.803 195.609 136.993 195.609 137.229C195.609 137.411 195.667 137.556 195.782 137.665C195.903 137.773 196.051 137.855 196.226 137.91C196.402 137.958 196.644 138.009 196.952 138.064C197.333 138.136 197.639 138.209 197.868 138.282C198.098 138.354 198.295 138.478 198.458 138.654C198.622 138.829 198.703 139.071 198.703 139.379C198.703 139.797 198.528 140.13 198.177 140.378C197.832 140.619 197.351 140.74 196.734 140.74ZM200.439 135.923H201.083V140.695H200.439V135.923ZM200.765 134.879C200.632 134.879 200.52 134.834 200.429 134.743C200.339 134.652 200.293 134.543 200.293 134.416C200.293 134.295 200.339 134.19 200.429 134.099C200.52 134.008 200.632 133.963 200.765 133.963C200.898 133.963 201.01 134.008 201.101 134.099C201.192 134.184 201.237 134.286 201.237 134.407C201.237 134.54 201.192 134.652 201.101 134.743C201.01 134.834 200.898 134.879 200.765 134.879ZM205.851 135.886C206.45 135.886 206.925 136.062 207.276 136.413C207.633 136.757 207.811 137.262 207.811 137.928V140.695H207.167V137.991C207.167 137.495 207.043 137.117 206.795 136.857C206.547 136.597 206.193 136.467 205.733 136.467C205.219 136.467 204.811 136.621 204.508 136.93C204.212 137.232 204.064 137.653 204.064 138.191V140.695H203.42V135.923H204.037V136.803C204.212 136.512 204.454 136.289 204.762 136.131C205.077 135.968 205.44 135.886 205.851 135.886ZM212.164 140.169C212.46 140.169 212.732 140.117 212.98 140.015C213.234 139.906 213.449 139.748 213.624 139.543L213.987 139.96C213.776 140.214 213.512 140.408 213.198 140.541C212.883 140.674 212.536 140.74 212.154 140.74C211.665 140.74 211.229 140.638 210.848 140.432C210.467 140.22 210.17 139.93 209.959 139.561C209.747 139.192 209.641 138.775 209.641 138.309C209.641 137.843 209.741 137.426 209.941 137.057C210.146 136.688 210.428 136.4 210.784 136.195C211.141 135.989 211.547 135.886 212 135.886C212.424 135.886 212.805 135.983 213.143 136.177C213.488 136.37 213.76 136.639 213.96 136.984C214.166 137.329 214.275 137.722 214.287 138.164L210.367 138.926C210.488 139.313 210.706 139.618 211.02 139.842C211.341 140.06 211.722 140.169 212.164 140.169ZM212 136.44C211.668 136.44 211.368 136.518 211.102 136.676C210.842 136.827 210.636 137.042 210.485 137.32C210.34 137.592 210.267 137.907 210.267 138.263C210.267 138.354 210.27 138.421 210.276 138.463L213.642 137.81C213.57 137.411 213.385 137.084 213.089 136.83C212.793 136.57 212.43 136.44 212 136.44ZM217.422 140.74C217.035 140.74 216.663 140.686 216.306 140.577C215.955 140.462 215.68 140.32 215.48 140.151L215.77 139.643C215.97 139.8 216.221 139.93 216.523 140.033C216.826 140.13 217.14 140.178 217.467 140.178C217.903 140.178 218.223 140.111 218.429 139.978C218.64 139.839 218.746 139.646 218.746 139.398C218.746 139.222 218.689 139.086 218.574 138.989C218.459 138.886 218.314 138.811 218.138 138.762C217.963 138.708 217.73 138.657 217.44 138.608C217.053 138.536 216.741 138.463 216.505 138.39C216.269 138.312 216.067 138.182 215.897 138C215.734 137.819 215.652 137.568 215.652 137.247C215.652 136.848 215.819 136.521 216.151 136.267C216.484 136.013 216.947 135.886 217.54 135.886C217.848 135.886 218.157 135.929 218.465 136.013C218.774 136.092 219.028 136.198 219.227 136.331L218.946 136.848C218.553 136.576 218.084 136.44 217.54 136.44C217.128 136.44 216.817 136.512 216.605 136.657C216.399 136.803 216.297 136.993 216.297 137.229C216.297 137.411 216.354 137.556 216.469 137.665C216.59 137.773 216.738 137.855 216.914 137.91C217.089 137.958 217.331 138.009 217.639 138.064C218.02 138.136 218.326 138.209 218.556 138.282C218.786 138.354 218.982 138.478 219.146 138.654C219.309 138.829 219.391 139.071 219.391 139.379C219.391 139.797 219.215 140.13 218.864 140.378C218.52 140.619 218.039 140.74 217.422 140.74ZM222.405 140.74C222.018 140.74 221.646 140.686 221.289 140.577C220.938 140.462 220.663 140.32 220.464 140.151L220.754 139.643C220.953 139.8 221.204 139.93 221.507 140.033C221.809 140.13 222.124 140.178 222.451 140.178C222.886 140.178 223.207 140.111 223.412 139.978C223.624 139.839 223.73 139.646 223.73 139.398C223.73 139.222 223.672 139.086 223.557 138.989C223.443 138.886 223.297 138.811 223.122 138.762C222.947 138.708 222.714 138.657 222.423 138.608C222.036 138.536 221.725 138.463 221.489 138.39C221.253 138.312 221.05 138.182 220.881 138C220.718 137.819 220.636 137.568 220.636 137.247C220.636 136.848 220.802 136.521 221.135 136.267C221.468 136.013 221.93 135.886 222.523 135.886C222.832 135.886 223.14 135.929 223.449 136.013C223.757 136.092 224.011 136.198 224.211 136.331L223.929 136.848C223.536 136.576 223.068 136.44 222.523 136.44C222.112 136.44 221.8 136.512 221.589 136.657C221.383 136.803 221.28 136.993 221.28 137.229C221.28 137.411 221.338 137.556 221.452 137.665C221.573 137.773 221.722 137.855 221.897 137.91C222.072 137.958 222.314 138.009 222.623 138.064C223.004 138.136 223.309 138.209 223.539 138.282C223.769 138.354 223.966 138.478 224.129 138.654C224.292 138.829 224.374 139.071 224.374 139.379C224.374 139.797 224.199 140.13 223.848 140.378C223.503 140.619 223.022 140.74 222.405 140.74ZM236.387 135.923V138.563C236.387 139.271 236.217 139.812 235.879 140.187C235.54 140.556 235.041 140.74 234.382 140.74C233.964 140.74 233.613 140.662 233.329 140.505C233.051 140.341 232.836 140.084 232.685 139.733C232.534 140.078 232.319 140.332 232.041 140.495C231.762 140.659 231.412 140.74 230.988 140.74C230.329 140.74 229.83 140.556 229.491 140.187C229.152 139.812 228.983 139.271 228.983 138.563V135.923H229.627V138.508C229.627 139.071 229.736 139.488 229.954 139.761C230.172 140.027 230.516 140.16 230.988 140.16C231.454 140.16 231.799 140.024 232.023 139.751C232.252 139.479 232.367 139.059 232.367 138.49V135.923H233.012V138.49C233.012 139.059 233.123 139.479 233.347 139.751C233.571 140.024 233.919 140.16 234.391 140.16C234.85 140.16 235.189 140.027 235.407 139.761C235.631 139.488 235.743 139.071 235.743 138.508V135.923H236.387ZM240.632 140.74C240.173 140.74 239.758 140.638 239.389 140.432C239.02 140.22 238.73 139.93 238.518 139.561C238.306 139.192 238.201 138.775 238.201 138.309C238.201 137.843 238.306 137.426 238.518 137.057C238.73 136.688 239.02 136.4 239.389 136.195C239.758 135.989 240.173 135.886 240.632 135.886C241.092 135.886 241.506 135.989 241.875 136.195C242.244 136.4 242.532 136.688 242.737 137.057C242.949 137.426 243.055 137.843 243.055 138.309C243.055 138.775 242.949 139.192 242.737 139.561C242.532 139.93 242.244 140.22 241.875 140.432C241.506 140.638 241.092 140.74 240.632 140.74ZM240.632 140.169C240.971 140.169 241.273 140.093 241.54 139.942C241.812 139.785 242.023 139.564 242.175 139.28C242.326 138.995 242.402 138.672 242.402 138.309C242.402 137.946 242.326 137.622 242.175 137.338C242.023 137.054 241.812 136.836 241.54 136.685C241.273 136.527 240.971 136.449 240.632 136.449C240.294 136.449 239.988 136.527 239.716 136.685C239.45 136.836 239.238 137.054 239.081 137.338C238.929 137.622 238.854 137.946 238.854 138.309C238.854 138.672 238.929 138.995 239.081 139.28C239.238 139.564 239.45 139.785 239.716 139.942C239.988 140.093 240.294 140.169 240.632 140.169ZM245.531 136.857C245.683 136.537 245.906 136.295 246.203 136.131C246.505 135.968 246.877 135.886 247.319 135.886V136.512L247.165 136.503C246.662 136.503 246.269 136.657 245.985 136.966C245.701 137.274 245.559 137.707 245.559 138.263V140.695H244.914V135.923H245.531V136.857ZM250.372 140.74C249.943 140.74 249.61 140.619 249.374 140.378C249.145 140.136 249.03 139.8 249.03 139.37V133.963H249.674V139.316C249.674 139.6 249.74 139.818 249.873 139.969C250.006 140.114 250.206 140.187 250.472 140.187C250.642 140.187 250.787 140.16 250.908 140.105L250.953 140.641C250.766 140.707 250.572 140.74 250.372 140.74ZM256.64 133.963V140.695H256.023V139.751C255.83 140.072 255.573 140.317 255.252 140.486C254.938 140.656 254.581 140.74 254.182 140.74C253.734 140.74 253.329 140.638 252.966 140.432C252.603 140.226 252.319 139.939 252.113 139.57C251.907 139.201 251.804 138.781 251.804 138.309C251.804 137.837 251.907 137.417 252.113 137.048C252.319 136.679 252.603 136.394 252.966 136.195C253.329 135.989 253.734 135.886 254.182 135.886C254.569 135.886 254.917 135.968 255.225 136.131C255.54 136.289 255.797 136.521 255.996 136.83V133.963H256.64ZM254.236 140.169C254.569 140.169 254.868 140.093 255.134 139.942C255.407 139.785 255.618 139.564 255.769 139.28C255.927 138.995 256.005 138.672 256.005 138.309C256.005 137.946 255.927 137.622 255.769 137.338C255.618 137.054 255.407 136.836 255.134 136.685C254.868 136.527 254.569 136.449 254.236 136.449C253.897 136.449 253.592 136.527 253.32 136.685C253.054 136.836 252.842 137.054 252.685 137.338C252.533 137.622 252.458 137.946 252.458 138.309C252.458 138.672 252.533 138.995 252.685 139.28C252.842 139.564 253.054 139.785 253.32 139.942C253.592 140.093 253.897 140.169 254.236 140.169ZM263.849 140.74C263.389 140.74 262.975 140.638 262.606 140.432C262.237 140.22 261.946 139.93 261.735 139.561C261.523 139.192 261.417 138.775 261.417 138.309C261.417 137.843 261.523 137.426 261.735 137.057C261.946 136.688 262.237 136.4 262.606 136.195C262.975 135.989 263.389 135.886 263.849 135.886C264.308 135.886 264.723 135.989 265.092 136.195C265.461 136.4 265.748 136.688 265.954 137.057C266.165 137.426 266.271 137.843 266.271 138.309C266.271 138.775 266.165 139.192 265.954 139.561C265.748 139.93 265.461 140.22 265.092 140.432C264.723 140.638 264.308 140.74 263.849 140.74ZM263.849 140.169C264.187 140.169 264.49 140.093 264.756 139.942C265.028 139.785 265.24 139.564 265.391 139.28C265.542 138.995 265.618 138.672 265.618 138.309C265.618 137.946 265.542 137.622 265.391 137.338C265.24 137.054 265.028 136.836 264.756 136.685C264.49 136.527 264.187 136.449 263.849 136.449C263.51 136.449 263.205 136.527 262.932 136.685C262.666 136.836 262.454 137.054 262.297 137.338C262.146 137.622 262.07 137.946 262.07 138.309C262.07 138.672 262.146 138.995 262.297 139.28C262.454 139.564 262.666 139.785 262.932 139.942C263.205 140.093 263.51 140.169 263.849 140.169ZM269.601 134.462C269.322 134.462 269.111 134.537 268.966 134.689C268.826 134.84 268.757 135.064 268.757 135.36V135.923H270.227V136.467H268.775V140.695H268.131V135.333C268.131 134.897 268.255 134.552 268.503 134.298C268.757 134.044 269.114 133.917 269.573 133.917C269.755 133.917 269.93 133.945 270.1 133.999C270.269 134.047 270.411 134.12 270.526 134.217L270.308 134.698C270.121 134.54 269.885 134.462 269.601 134.462ZM276.913 140.405C276.792 140.514 276.643 140.598 276.468 140.659C276.293 140.713 276.108 140.74 275.914 140.74C275.467 140.74 275.122 140.619 274.88 140.378C274.638 140.136 274.517 139.794 274.517 139.352V134.879H275.161V135.923H276.604V136.467H275.161V139.316C275.161 139.6 275.231 139.818 275.37 139.969C275.509 140.114 275.712 140.187 275.978 140.187C276.268 140.187 276.504 140.105 276.686 139.942L276.913 140.405ZM280.407 140.74C279.947 140.74 279.533 140.638 279.164 140.432C278.795 140.22 278.505 139.93 278.293 139.561C278.081 139.192 277.975 138.775 277.975 138.309C277.975 137.843 278.081 137.426 278.293 137.057C278.505 136.688 278.795 136.4 279.164 136.195C279.533 135.989 279.947 135.886 280.407 135.886C280.867 135.886 281.281 135.989 281.65 136.195C282.019 136.4 282.306 136.688 282.512 137.057C282.724 137.426 282.83 137.843 282.83 138.309C282.83 138.775 282.724 139.192 282.512 139.561C282.306 139.93 282.019 140.22 281.65 140.432C281.281 140.638 280.867 140.74 280.407 140.74ZM280.407 140.169C280.746 140.169 281.048 140.093 281.314 139.942C281.587 139.785 281.798 139.564 281.949 139.28C282.101 138.995 282.176 138.672 282.176 138.309C282.176 137.946 282.101 137.622 281.949 137.338C281.798 137.054 281.587 136.836 281.314 136.685C281.048 136.527 280.746 136.449 280.407 136.449C280.068 136.449 279.763 136.527 279.491 136.685C279.224 136.836 279.013 137.054 278.855 137.338C278.704 137.622 278.629 137.946 278.629 138.309C278.629 138.672 278.704 138.995 278.855 139.28C279.013 139.564 279.224 139.785 279.491 139.942C279.763 140.093 280.068 140.169 280.407 140.169ZM290.641 135.886C291.24 135.886 291.709 136.059 292.048 136.403C292.392 136.748 292.565 137.256 292.565 137.928V140.695H291.921V137.991C291.921 137.495 291.8 137.117 291.558 136.857C291.322 136.597 290.986 136.467 290.55 136.467C290.054 136.467 289.664 136.621 289.38 136.93C289.096 137.232 288.954 137.653 288.954 138.191V140.695H288.309V137.991C288.309 137.495 288.188 137.117 287.946 136.857C287.711 136.597 287.372 136.467 286.93 136.467C286.44 136.467 286.05 136.621 285.76 136.93C285.475 137.232 285.333 137.653 285.333 138.191V140.695H284.689V135.923H285.306V136.794C285.475 136.503 285.711 136.279 286.014 136.122C286.316 135.965 286.664 135.886 287.057 135.886C287.456 135.886 287.801 135.971 288.092 136.14C288.388 136.31 288.609 136.561 288.754 136.893C288.929 136.579 289.18 136.334 289.507 136.158C289.84 135.977 290.218 135.886 290.641 135.886ZM300.808 135.886C301.407 135.886 301.876 136.059 302.215 136.403C302.559 136.748 302.732 137.256 302.732 137.928V140.695H302.087V137.991C302.087 137.495 301.967 137.117 301.725 136.857C301.489 136.597 301.153 136.467 300.717 136.467C300.221 136.467 299.831 136.621 299.547 136.93C299.263 137.232 299.121 137.653 299.121 138.191V140.695H298.476V137.991C298.476 137.495 298.355 137.117 298.113 136.857C297.878 136.597 297.539 136.467 297.097 136.467C296.607 136.467 296.217 136.621 295.927 136.93C295.642 137.232 295.5 137.653 295.5 138.191V140.695H294.856V135.923H295.473V136.794C295.642 136.503 295.878 136.279 296.181 136.122C296.483 135.965 296.831 135.886 297.224 135.886C297.623 135.886 297.968 135.971 298.259 136.14C298.555 136.31 298.776 136.561 298.921 136.893C299.096 136.579 299.347 136.334 299.674 136.158C300.007 135.977 300.385 135.886 300.808 135.886ZM306.992 140.74C306.532 140.74 306.118 140.638 305.749 140.432C305.38 140.22 305.089 139.93 304.878 139.561C304.666 139.192 304.56 138.775 304.56 138.309C304.56 137.843 304.666 137.426 304.878 137.057C305.089 136.688 305.38 136.4 305.749 136.195C306.118 135.989 306.532 135.886 306.992 135.886C307.451 135.886 307.866 135.989 308.235 136.195C308.604 136.4 308.891 136.688 309.097 137.057C309.308 137.426 309.414 137.843 309.414 138.309C309.414 138.775 309.308 139.192 309.097 139.561C308.891 139.93 308.604 140.22 308.235 140.432C307.866 140.638 307.451 140.74 306.992 140.74ZM306.992 140.169C307.33 140.169 307.633 140.093 307.899 139.942C308.171 139.785 308.383 139.564 308.534 139.28C308.685 138.995 308.761 138.672 308.761 138.309C308.761 137.946 308.685 137.622 308.534 137.338C308.383 137.054 308.171 136.836 307.899 136.685C307.633 136.527 307.33 136.449 306.992 136.449C306.653 136.449 306.347 136.527 306.075 136.685C305.809 136.836 305.597 137.054 305.44 137.338C305.289 137.622 305.213 137.946 305.213 138.309C305.213 138.672 305.289 138.995 305.44 139.28C305.597 139.564 305.809 139.785 306.075 139.942C306.347 140.093 306.653 140.169 306.992 140.169ZM311.891 136.857C312.042 136.537 312.266 136.295 312.562 136.131C312.865 135.968 313.237 135.886 313.678 135.886V136.512L313.524 136.503C313.022 136.503 312.629 136.657 312.344 136.966C312.06 137.274 311.918 137.707 311.918 138.263V140.695H311.274V135.923H311.891V136.857ZM317.295 140.74C316.836 140.74 316.421 140.638 316.052 140.432C315.683 140.22 315.393 139.93 315.181 139.561C314.97 139.192 314.864 138.775 314.864 138.309C314.864 137.843 314.97 137.426 315.181 137.057C315.393 136.688 315.683 136.4 316.052 136.195C316.421 135.989 316.836 135.886 317.295 135.886C317.755 135.886 318.169 135.989 318.538 136.195C318.907 136.4 319.195 136.688 319.4 137.057C319.612 137.426 319.718 137.843 319.718 138.309C319.718 138.775 319.612 139.192 319.4 139.561C319.195 139.93 318.907 140.22 318.538 140.432C318.169 140.638 317.755 140.74 317.295 140.74ZM317.295 140.169C317.634 140.169 317.937 140.093 318.203 139.942C318.475 139.785 318.687 139.564 318.838 139.28C318.989 138.995 319.065 138.672 319.065 138.309C319.065 137.946 318.989 137.622 318.838 137.338C318.687 137.054 318.475 136.836 318.203 136.685C317.937 136.527 317.634 136.449 317.295 136.449C316.957 136.449 316.651 136.527 316.379 136.685C316.113 136.836 315.901 137.054 315.744 137.338C315.593 137.622 315.517 137.946 315.517 138.309C315.517 138.672 315.593 138.995 315.744 139.28C315.901 139.564 316.113 139.785 316.379 139.942C316.651 140.093 316.957 140.169 317.295 140.169ZM328.936 135.923V138.563C328.936 139.271 328.767 139.812 328.428 140.187C328.089 140.556 327.59 140.74 326.931 140.74C326.513 140.74 326.163 140.662 325.878 140.505C325.6 140.341 325.385 140.084 325.234 139.733C325.083 140.078 324.868 140.332 324.59 140.495C324.312 140.659 323.961 140.74 323.537 140.74C322.878 140.74 322.379 140.556 322.04 140.187C321.701 139.812 321.532 139.271 321.532 138.563V135.923H322.176V138.508C322.176 139.071 322.285 139.488 322.503 139.761C322.721 140.027 323.066 140.16 323.537 140.16C324.003 140.16 324.348 140.024 324.572 139.751C324.802 139.479 324.916 139.059 324.916 138.49V135.923H325.561V138.49C325.561 139.059 325.673 139.479 325.896 139.751C326.12 140.024 326.468 140.16 326.94 140.16C327.399 140.16 327.738 140.027 327.956 139.761C328.18 139.488 328.292 139.071 328.292 138.508V135.923H328.936Z" fill="black"/>
<path d="M124.497 78.9664C124.497 104.202 108.291 125.656 85.6864 133.605C83.0557 128.92 80.3601 124.299 77.7618 119.614C73.4099 111.73 69.8698 103.588 70.4544 94.2496C70.6817 90.6308 71.4287 87.7228 75.1312 85.6871C79.3857 83.3284 83.0232 79.7096 81.854 74.2167C80.6199 68.3683 76.6251 64.394 70.7467 63.037C62.6598 61.1629 55.4822 64.0063 48.9218 68.4006C40.3152 74.152 35.1513 82.6499 31.189 91.9232C27.519 100.583 25.0832 109.533 23.9465 118.774C14.0733 108.402 8 94.3789 8 78.9664C8 46.9459 34.0795 21 66.2648 21C98.4501 21 124.497 46.9459 124.497 78.9664Z" fill="#FBB03B"/>
<path d="M90.1351 141.811L89.7454 141.65C81.561 136.9 29.532 139 25.115 132.28C24.0757 130.664 23.1664 128.564 23.2313 126.722C23.3612 124.04 23.5886 121.391 23.9133 118.773C34.5335 129.921 49.5706 136.9 66.2316 136.9C73.0519 136.9 79.6124 135.737 85.6857 133.604C87.2121 136.318 88.7386 139.065 90.1351 141.811Z" fill="#C1272D"/>
<path d="M87.8299 50.597C85.9137 46.9459 84.3873 44.0055 82.4386 40.3221C81.3019 43.6824 80.5874 45.8796 79.8404 48.0444C77.8593 43.8763 77.1123 39.7081 73.1175 37.3494C71.8509 39.7081 70.6168 41.9376 69.6424 43.7794C66.7195 40.7098 64.1213 37.9956 61.5555 35.2815C61.1333 35.6046 60.7111 35.8954 60.2889 36.2185C60.2564 37.1555 60.1915 38.0926 60.159 39.0296C59.9317 43.0685 58.9248 44.0702 54.8651 44.8456C49.7986 45.7827 45.7065 48.1737 43.7903 53.2142C41.5493 59.1272 45.4466 63.8447 51.6823 62.6814C56.7813 61.7121 61.8153 60.2258 66.9468 59.4503C73.6697 58.4164 78.9635 61.0982 82.4711 66.8819C83.7052 68.9498 84.9069 70.1777 87.4726 69.7899C90.2657 69.3376 92.8639 68.6913 94.1955 65.9449C96.9886 60.1612 93.2212 51.9541 87.8299 50.597Z" fill="#C1272D"/>
<path d="M73.8321 91.8907C73.8971 96.0589 77.2423 99.5808 81.5293 99.9362C85.8813 100.292 89.7461 97.1898 90.3957 92.7954C91.0128 88.595 88.2847 84.5238 84.225 83.5544C81.9515 83.0374 73.7997 89.5643 73.8321 91.8907Z" fill="black"/>
<path d="M84.3223 78.8043C87.4726 77.7057 90.2332 76.7687 92.9938 75.8317C92.9613 75.4116 92.9613 74.9593 92.9288 74.5392C90.1682 73.7961 87.3752 73.0529 84.3223 72.2451C84.3223 74.4746 84.3223 76.2194 84.3223 78.8043Z" fill="black"/>
</svg>
